<?xml version="1.0" standalone="no"?>
<!DOCTYPE svg PUBLIC "-//W3C//DTD SVG 20010904//EN"
 "http://www.w3.org/TR/2001/REC-SVG-20010904/DTD/svg10.dtd">
<svg version="1.0" xmlns="http://www.w3.org/2000/svg"
 width="260.000000pt" height="260.000000pt" viewBox="0 0 260.000000 260.000000"
 preserveAspectRatio="xMidYMid meet">
<metadata>
Created by potrace 1.14, written by Peter Selinger 2001-2017
</metadata>
<g transform="translate(0.000000,260.000000) scale(0.100000,-0.100000)"
fill="#000000" stroke="none">
<path d="M1060 2424 c-426 -93 -752 -384 -885 -789 -13 -41 -27 -96 -31 -122
-3 -26 -9 -68 -13 -93 l-6 -45 -50 0 c-27 0 -56 -4 -62 -8 -8 -5 -13 -30 -13
-62 0 -64 12 -74 79 -71 48 3 48 3 55 -74 23 -233 146 -481 331 -665 224 -224
514 -343 831 -343 108 0 157 5 245 21 39 8 180 48 198 57 9 4 54 26 101 48
136 65 277 176 385 305 126 150 232 400 249 584 2 29 7 56 10 61 3 5 22 8 43
6 61 -4 73 8 73 71 0 62 -11 73 -73 71 -44 -2 -48 2 -52 52 -14 158 -82 343
-183 497 -168 255 -433 433 -747 501 -129 27 -354 27 -485 -2z m429 -264 c293
-62 541 -264 651 -532 22 -54 22 -59 7 -76 -9 -10 -17 -24 -17 -31 0 -8 -15
-10 -45 -8 -29 2 -50 -1 -56 -10 -6 -7 -11 -46 -12 -88 l0 -74 -264 -3 c-146
-2 -266 -1 -268 0 -7 7 7 32 14 27 4 -2 17 3 29 11 18 12 22 25 22 64 0 30 -6
54 -15 64 -18 18 -19 27 -2 24 8 -2 13 12 15 38 4 48 -14 67 -59 66 -39 -1
-36 -9 -54 175 -17 184 -23 203 -71 203 -43 0 -47 -22 -58 -293 -2 -37 -6 -70
-10 -74 -4 -4 -22 -8 -41 -8 -18 -1 -41 -7 -49 -14 -21 -18 -21 -99 0 -129 18
-26 12 -41 -9 -24 -8 7 -17 9 -20 5 -4 -3 -7 25 -7 64 0 84 -7 92 -80 97 -83
4 -93 -10 -95 -128 -1 -82 2 -102 17 -122 16 -20 25 -23 55 -18 27 4 34 2 31
-8 -4 -10 -58 -14 -256 -16 l-252 -2 0 79 c0 44 -5 83 -10 86 -6 3 -30 7 -55
8 -33 1 -46 6 -50 18 -3 10 -12 20 -20 23 -12 4 -12 11 -1 44 40 112 106 213
205 313 144 144 299 224 501 258 87 14 236 10 329 -9z m-399 -660 c0 -33 -4
-60 -8 -60 -6 0 -9 107 -3 118 7 13 11 -8 11 -58z m195 50 c3 -5 -1 -10 -10
-10 -9 0 -13 5 -10 10 3 6 8 10 10 10 2 0 7 -4 10 -10z m5 -94 c0 -3 -4 -8
-10 -11 -5 -3 -10 -1 -10 4 0 6 5 11 10 11 6 0 10 -2 10 -4z m-7 -122 c-1 -16
-3 -48 -4 -72 -2 -58 -22 -49 -31 14 -4 27 -10 59 -13 72 -5 20 -2 22 22 19
24 -3 28 -8 26 -33z m113 -104 c2 -56 -2 -88 -12 -107 -13 -26 -14 -21 -10 62
3 50 5 101 5 114 1 13 4 21 8 18 3 -4 7 -43 9 -87z m-246 6 c1 -6 2 -69 3
-140 2 -117 4 -129 20 -132 26 -4 24 0 36 -90 7 -44 14 -91 16 -105 3 -13 7
-44 10 -68 11 -94 21 -111 61 -111 44 0 48 13 59 239 6 126 9 146 25 136 5 -3
19 -1 30 5 14 8 20 8 20 0 0 -6 12 -9 28 -6 15 2 29 5 32 5 8 1 7 141 -1 141
-8 0 41 122 52 130 6 4 425 5 465 1 6 -1 11 -29 11 -72 1 -81 7 -89 71 -89 31
0 42 -4 42 -15 0 -9 7 -18 16 -22 20 -8 13 -37 -33 -128 -107 -214 -295 -374
-527 -450 -99 -32 -125 -36 -261 -40 -137 -4 -193 4 -320 47 -193 65 -349 185
-459 352 -64 97 -112 209 -92 214 8 2 16 12 19 23 4 15 14 19 49 19 24 0 49 5
56 12 7 7 12 40 12 79 0 55 3 68 17 71 9 2 135 3 280 4 183 1 263 -3 263 -10z"/>
<path d="M637 1619 c-19 -15 -21 -27 -22 -119 0 -123 10 -138 94 -134 67 2 83
16 79 68 -3 39 -5 41 -37 42 -25 1 -35 -3 -38 -17 -10 -38 -19 -18 -17 39 2
69 3 73 14 46 6 -16 16 -20 42 -19 31 1 33 4 36 42 4 50 -11 63 -78 67 -38 2
-58 -2 -73 -15z"/>
<path d="M809 1625 c-4 -35 -4 -255 1 -256 29 -5 62 -4 66 2 2 4 5 24 6 44 2
48 18 44 18 -5 0 -40 3 -42 45 -42 8 0 19 0 23 1 15 2 12 227 -2 247 -10 13
-29 17 -85 18 -41 1 -72 -3 -72 -9z m91 -87 c0 -19 -2 -20 -10 -8 -13 19 -13
30 0 30 6 0 10 -10 10 -22z"/>
<path d="M1571 1620 c-8 -18 -7 -221 1 -242 6 -15 44 -18 64 -5 6 3 11 25 10
47 -2 38 3 45 32 41 24 -4 39 18 34 49 -3 21 -10 30 -21 29 -9 -1 -25 -1 -35
0 -32 2 -5 19 34 23 31 3 35 6 32 28 -2 14 -1 22 3 18 4 -3 7 -59 8 -124 l2
-118 35 -1 35 0 3 103 c1 56 4 102 7 102 2 0 15 -4 29 -10 25 -9 26 -11 23
-95 -3 -89 0 -97 40 -101 32 -4 38 11 39 91 2 104 2 105 23 105 12 0 20 9 23
23 9 46 -1 52 -87 52 l-80 0 -6 -30 -6 -30 -4 30 c-3 25 -8 29 -34 30 -16 0
-33 -4 -36 -9 -4 -4 -13 -5 -20 0 -7 4 -42 8 -77 8 -48 1 -66 -3 -71 -14z"/>
<path d="M619 1211 c-3 -45 -4 -227 -1 -237 2 -6 27 -10 63 -9 90 3 103 20
105 135 0 55 -4 96 -11 106 -17 24 -155 28 -156 5z m91 -122 c0 -37 -4 -58
-10 -54 -5 3 -10 31 -10 61 0 30 5 54 10 54 6 0 10 -27 10 -61z"/>
<path d="M812 1220 c-6 -4 -8 -183 -3 -241 1 -13 14 -16 73 -15 68 1 72 3 78
26 l6 25 8 -22 c8 -26 4 -25 74 -27 60 -3 80 8 87 44 8 43 -3 60 -41 60 -25 0
-34 -4 -34 -17 0 -9 -3 -13 -7 -9 -10 9 -12 106 -2 106 3 0 9 -9 12 -20 4 -15
11 -18 33 -14 40 7 43 10 40 50 -4 47 -14 55 -76 59 -45 3 -56 -1 -76 -20 -22
-23 -24 -23 -24 -5 0 11 -6 21 -12 21 -41 4 -130 4 -136 -1z m155 -119 l0 -69
-36 3 c-20 2 -39 4 -43 4 -5 1 -8 6 -8 12 0 6 9 9 20 6 28 -7 53 15 48 44 -2
19 -10 25 -35 27 -44 4 -42 22 1 22 19 0 38 5 41 10 11 17 12 12 12 -59z"/>
<path d="M1561 1221 c-5 -4 -12 -21 -16 -39 -3 -18 -12 -64 -20 -103 -23 -109
-22 -118 20 -116 26 2 35 7 40 25 7 27 25 29 25 3 0 -27 54 -40 75 -19 5 5 -9
91 -40 233 -3 15 -13 20 -39 21 -19 1 -39 -2 -45 -5z"/>
<path d="M1687 1222 c-12 -3 -17 -13 -17 -38 0 -29 3 -34 23 -34 23 0 24 -2
22 -85 -2 -91 3 -102 45 -101 25 1 25 2 28 94 3 89 3 92 26 92 23 0 24 -2 24
-84 -1 -46 2 -88 5 -93 7 -11 126 -12 143 -1 6 4 9 21 6 38 -4 28 -7 30 -38
26 -19 -2 -37 0 -39 4 -6 9 19 20 46 20 15 0 19 7 19 35 0 33 -2 35 -36 35
-21 0 -33 4 -29 10 3 6 19 10 35 10 16 0 32 6 36 12 12 19 12 48 0 56 -11 6
-267 10 -299 4z"/>
<path d="M743 712 c-13 -15 -23 -30 -23 -33 0 -13 29 -31 40 -24 16 10 12 25
-5 19 -21 -8 -19 9 3 29 20 18 37 23 27 8 -3 -5 -1 -12 4 -15 16 -10 24 14 11
29 -18 21 -32 18 -57 -13z"/>
<path d="M1806 721 c-14 -16 -15 -20 -2 -30 8 -7 24 -10 36 -6 11 4 20 2 20
-4 0 -6 -7 -11 -15 -11 -8 0 -15 -4 -15 -10 0 -11 11 -13 34 -4 23 9 19 25
-13 57 -27 26 -28 27 -45 8z m34 -15 c0 -3 -4 -8 -10 -11 -5 -3 -10 -1 -10 4
0 6 5 11 10 11 6 0 10 -2 10 -4z"/>
<path d="M803 661 l-22 -28 20 -19 c21 -19 21 -18 45 11 28 35 30 51 8 59 -23
9 -27 7 -51 -23z m47 1 c0 -5 -9 -17 -20 -27 -22 -20 -26 -14 -10 16 11 19 30
26 30 11z"/>
<path d="M1746 677 c-21 -15 -13 -39 21 -68 17 -15 19 -15 34 0 16 15 15 18
-10 48 -24 29 -30 31 -45 20z m22 -18 c-2 -3 3 -13 11 -22 7 -10 10 -17 6 -17
-9 0 -34 31 -35 43 0 5 5 7 11 5 6 -2 9 -6 7 -9z"/>
<path d="M876 616 c-19 -36 -15 -56 11 -56 11 0 13 3 5 13 -7 8 -6 19 3 37 16
29 18 40 7 40 -4 0 -16 -15 -26 -34z"/>
<path d="M1690 644 c0 -3 5 -15 11 -27 12 -21 11 -21 -8 -4 -35 31 -46 20 -22
-23 13 -22 26 -40 31 -40 12 0 10 14 -4 30 -7 8 -3 6 9 -3 29 -25 37 -7 16 37
-14 31 -33 48 -33 30z"/>
<path d="M936 584 c-16 -34 -16 -37 1 -49 22 -16 29 -12 49 27 15 30 15 32 -2
45 -25 19 -28 17 -48 -23z m44 11 c0 -15 -24 -54 -31 -49 -10 6 10 54 23 54 4
0 8 -2 8 -5z"/>
<path d="M1610 606 c0 -15 32 -76 40 -76 6 0 10 2 10 5 0 12 -35 75 -42 75 -4
0 -8 -2 -8 -4z"/>
<path d="M1019 563 c-5 -16 -11 -33 -14 -40 -7 -20 7 -23 21 -5 12 16 13 15
14 -6 0 -34 17 -18 25 24 4 26 3 39 -7 45 -21 14 -28 11 -39 -18z m31 -9 c0
-8 -5 -12 -10 -9 -6 4 -8 11 -5 16 9 14 15 11 15 -7z"/>
<path d="M1544 579 c-8 -14 16 -90 27 -83 4 2 6 11 2 19 -3 8 -1 15 5 15 6 0
12 -6 15 -12 2 -7 7 -10 11 -7 3 3 -1 22 -9 42 -15 36 -37 48 -51 26z m31 -19
c3 -5 1 -10 -4 -10 -6 0 -11 5 -11 10 0 6 2 10 4 10 3 0 8 -4 11 -10z"/>
<path d="M1470 560 c-14 -9 2 -82 19 -88 10 -3 12 1 7 13 -4 11 0 22 10 30 32
23 -2 66 -36 45z m30 -26 c0 -8 -4 -12 -10 -9 -5 3 -10 10 -10 16 0 5 5 9 10
9 6 0 10 -7 10 -16z"/>
<path d="M1110 556 c0 -2 -7 -20 -15 -41 -16 -36 -15 -36 5 -30 11 4 20 2 20
-4 0 -6 5 -11 10 -11 6 0 10 20 10 45 0 33 -4 45 -15 45 -8 0 -15 -2 -15 -4z"/>
<path d="M1176 535 c-3 -9 -6 -30 -6 -46 0 -22 5 -29 20 -29 39 0 52 83 14 88
-13 2 -24 -4 -28 -13z m32 -30 c-1 -14 -6 -25 -10 -25 -4 0 -8 11 -8 25 0 14
4 25 10 25 5 0 9 -11 8 -25z"/>
<path d="M1260 525 c-9 -23 1 -75 14 -75 24 0 36 16 36 50 0 25 -5 40 -16 44
-23 9 -24 8 -34 -19z m30 -27 c0 -17 -3 -28 -7 -24 -9 9 -13 38 -7 48 10 15
14 8 14 -24z"/>
<path d="M1385 541 c-3 -6 -3 -16 1 -22 4 -7 7 -21 8 -33 1 -30 40 -29 44 2 2
14 -2 22 -12 22 -8 0 -18 5 -21 11 -4 6 0 9 8 7 9 -2 17 2 19 7 4 14 -38 19
-47 6z m40 -51 c3 -5 1 -10 -4 -10 -6 0 -11 5 -11 10 0 6 2 10 4 10 3 0 8 -4
11 -10z"/>
</g>
</svg>
